<svg version="1.2" xmlns="http://www.w3.org/2000/svg" viewBox="0 0 1920 1080" width="1920" height="1080">
	<title>hero-bg2</title>
	<style>
		.s0 { fill: #f4f4f4 } 
		.s1 { fill: #ffffff } 
	</style>
	<g id="Background">
		<path id="Path 0" class="s0" d="m0 540v540h1766.5c-38.8-13-56.3-19.3-64-22.4-7.7-3.2-19.2-8.4-25.5-11.7-6.3-3.3-18-10.4-26-15.6-8-5.3-22.1-15-31.4-21.7-9.3-6.6-22.3-16.4-29-21.7-6.6-5.4-19.1-16.1-27.6-23.9-8.5-7.9-18.7-16.9-22.5-20-3.8-3.2-10.8-8.3-15.5-11.5-4.7-3.1-15.3-9-23.5-13-8.3-4.1-20.7-9.4-27.8-11.9-7-2.5-20.5-6.8-29.9-9.5-9.5-2.7-26.5-6.9-37.8-9.5-11.3-2.5-31.5-6.6-45-9-13.5-2.5-34.8-6.1-47.5-8-12.7-2-38.1-5.6-56.5-8.1-18.4-2.6-40-5.7-48-7.1-8-1.4-20.8-3.9-28.5-5.6-7.7-1.6-20.2-4.8-27.8-6.9-7.5-2.1-19.4-6-26.5-8.5-7-2.5-18.1-7.2-24.7-10.4-6.6-3.2-17-9.1-23-13.1-7.7-5.1-14.5-10.7-22.5-18.8-7.9-7.9-13.9-15.1-18.9-22.6-4-6-14-24.5-22.3-41-8.3-16.5-17.9-34.7-21.3-40.5-3.5-5.8-9.8-15.2-14.1-21-4.3-5.8-13.9-16.6-21.3-24.1-7.5-7.4-17.4-16.6-22.1-20.3-4.7-3.7-13-9.8-18.5-13.5-5.5-3.7-18.3-11.9-28.5-18.1-10.2-6.2-25-15.6-33-20.8-8-5.2-20.6-13.8-28-19.1-7.4-5.3-18.6-13.8-25-18.9-6.3-5.1-15.7-13.2-20.9-18-5.2-4.8-13.3-13-17.9-18.2-4.7-5.2-11.3-13.3-14.8-18-3.5-4.7-9.2-13.2-12.6-19-3.4-5.8-8.4-15.3-11-21.3-2.6-5.9-6.6-16-8.9-22.4-2.2-6.5-5.3-16.7-6.9-22.8-1.6-6.1-4.7-20-6.9-31-2.2-11-5.3-29.2-7-40.5-1.7-11.3-5.1-35.6-7.6-54-2.6-19.3-5.8-38.8-7.5-46-1.7-6.9-4.6-16.6-6.5-21.5-1.9-4.9-5.1-12.8-7.3-17.5-2.1-4.7-6.8-13.4-10.4-19.5-3.7-6.1-9.7-15.1-13.5-20.2-3.7-5-11.1-14-16.3-19.9-5.2-5.8-14.6-15.2-20.9-20.8-6.2-5.5-15.7-13.4-21-17.5-5.3-4.1-15.9-11.5-23.6-16.6-7.7-5.1-20.8-13-29-17.6-8.3-4.5-21.5-11.3-29.5-15-8-3.7-19.4-8.7-25.5-11.2-6.1-2.5-18-7-26.5-10-8.5-3-21.8-7.4-29.5-9.6l-14-4.1h-407.5z"/>
		<path id="Path 1" class="s1" d="m413.5 1.6c2.8 0.8 13.8 4.3 24.5 7.8 10.7 3.5 26 8.9 34 12.1 8 3.2 21.5 9 30 13 8.5 3.9 22.3 10.9 30.5 15.4 8.3 4.6 21.3 12.5 29 17.6 7.7 5.1 18.3 12.5 23.6 16.6 5.3 4.1 14.8 12 21 17.5 6.3 5.6 15.7 15 20.9 20.8 5.2 5.9 12.6 14.9 16.3 19.9 3.8 5.1 9.8 14.1 13.5 20.2 3.6 6.1 8.3 14.8 10.4 19.5 2.2 4.7 5.4 12.6 7.3 17.5 1.9 4.9 4.8 14.6 6.5 21.5 1.7 7.2 4.9 26.7 7.5 46 2.5 18.4 5.9 42.7 7.6 54 1.7 11.3 4.8 29.5 7 40.5 2.2 11 5.3 24.9 6.9 31 1.6 6.1 4.7 16.3 6.9 22.8 2.3 6.4 6.3 16.5 8.9 22.4 2.6 6 7.6 15.5 11 21.3 3.4 5.8 9.1 14.3 12.6 19 3.5 4.7 10.1 12.8 14.8 18 4.6 5.2 12.7 13.4 17.9 18.2 5.2 4.8 14.6 12.9 20.9 18 6.4 5.1 17.6 13.6 25 18.9 7.4 5.3 20 13.9 28 19.1 8 5.2 22.8 14.6 33 20.8 10.2 6.2 23 14.4 28.5 18.1 5.5 3.7 13.8 9.8 18.5 13.5 4.7 3.7 14.6 12.9 22.1 20.3 7.4 7.5 17 18.3 21.3 24.1 4.3 5.8 10.6 15.2 14.1 21 3.4 5.8 13 24 21.3 40.5 8.3 16.5 18.3 35 22.3 41 5 7.5 11 14.7 18.9 22.6 8 8.1 14.8 13.7 22.5 18.8 6 4 16.4 9.9 23 13.1 6.6 3.2 17.7 7.9 24.8 10.4 7 2.5 18.9 6.4 26.4 8.5 7.6 2.1 20.1 5.3 27.8 6.9 7.7 1.7 20.5 4.2 28.5 5.6 8 1.4 29.6 4.5 48 7.1 18.4 2.5 43.8 6.1 56.5 8.1 12.7 1.9 34 5.5 47.5 8 13.5 2.4 33.7 6.5 45 9 11.3 2.6 28.3 6.8 37.8 9.5 9.4 2.7 22.9 7 30 9.5 7 2.5 19.5 7.8 27.7 11.9 8.3 4 18.8 9.9 23.5 13 4.7 3.2 11.7 8.3 15.5 11.5 3.8 3.1 14 12.1 22.5 20 8.5 7.8 21 18.5 27.6 23.9 6.7 5.3 19.7 15.1 29 21.7 9.3 6.7 23.4 16.4 31.4 21.7 8 5.2 19.7 12.3 26 15.6 6.3 3.3 18.7 8.9 27.5 12.4 8.8 3.6 26.5 9.9 39.3 14.1l23.2 7.6h153v-1080c-1411.9 0.2-1510.8 0.4-1506.5 1.6z"/>
	</g>
</svg>